<svg width="30" height="31" viewBox="0 0 30 31" fill="none" xmlns="http://www.w3.org/2000/svg">
<g clip-path="url(#clip0_830_868)">
<path fill-rule="evenodd" clip-rule="evenodd" d="M21.25 3.44873C22.2446 3.44873 23.1984 3.84382 23.9017 4.54708C24.6049 5.25034 25 6.20417 25 7.19873V27.1987C24.9999 27.4342 24.9332 27.6648 24.8078 27.864C24.6823 28.0632 24.5032 28.223 24.2909 28.3249C24.0787 28.4267 23.842 28.4666 23.6081 28.4399C23.3741 28.4131 23.1525 28.3209 22.9688 28.1737L20.625 26.2987L18.2812 28.1737C18.0411 28.3661 17.7385 28.4631 17.4313 28.4463C17.1241 28.4295 16.8339 28.2999 16.6163 28.0825L15 26.4662L13.3837 28.0825C13.1663 28.3001 12.8761 28.4299 12.5689 28.4469C12.2617 28.464 11.959 28.3672 11.7188 28.175L9.375 26.2987L7.03125 28.1737C6.84747 28.3209 6.62586 28.4131 6.39195 28.4399C6.15804 28.4666 5.92133 28.4267 5.70909 28.3249C5.49684 28.223 5.31768 28.0632 5.19223 27.864C5.06678 27.6648 5.00015 27.4342 5 27.1987V7.19873C5 6.20417 5.39509 5.25034 6.09835 4.54708C6.80161 3.84382 7.75544 3.44873 8.75 3.44873H21.25ZM15 15.9487H11.25C10.9185 15.9487 10.6005 16.0804 10.3661 16.3148C10.1317 16.5493 10 16.8672 10 17.1987C10 17.5303 10.1317 17.8482 10.3661 18.0826C10.6005 18.317 10.9185 18.4487 11.25 18.4487H15C15.3315 18.4487 15.6495 18.317 15.8839 18.0826C16.1183 17.8482 16.25 17.5303 16.25 17.1987C16.25 16.8672 16.1183 16.5493 15.8839 16.3148C15.6495 16.0804 15.3315 15.9487 15 15.9487ZM18.75 10.9487H11.25C10.9314 10.9491 10.625 11.0711 10.3933 11.2898C10.1616 11.5085 10.0222 11.8074 10.0035 12.1255C9.98486 12.4435 10.0883 12.7567 10.2928 13.001C10.4973 13.2453 10.7874 13.4024 11.1038 13.44L11.25 13.4487H18.75C19.0686 13.4484 19.375 13.3264 19.6067 13.1077C19.8384 12.889 19.9778 12.59 19.9965 12.272C20.0151 11.9539 19.9117 11.6408 19.7072 11.3964C19.5027 11.1521 19.2126 10.9951 18.8962 10.9575L18.75 10.9487Z" fill="black"/>
</g>
<defs>
<clipPath id="clip0_830_868">
<rect width="30" height="30" fill="white" transform="translate(0 0.94873)"/>
</clipPath>
</defs>
</svg>
