<svg width="19" height="18" viewBox="0 0 19 18" fill="none" xmlns="http://www.w3.org/2000/svg">
<g id="instagram-logo">
<path id="Shape" fill-rule="evenodd" clip-rule="evenodd" d="M13.7577 0H4.75772C2.28295 0 0.257721 2.02432 0.257721 4.5V13.5C0.257721 15.9748 2.28295 18 4.75772 18H13.7577C16.2325 18 18.2577 15.9748 18.2577 13.5V4.5C18.2577 2.02432 16.2325 0 13.7577 0ZM9.25772 12.7499C7.18637 12.7499 5.50765 11.0704 5.50765 9C5.50765 6.92865 7.18637 5.24993 9.25772 5.24993C11.3282 5.24993 13.0078 6.92865 13.0078 9C13.0078 11.0704 11.3282 12.7499 9.25772 12.7499ZM13.0078 4.12492C13.0078 4.74615 13.5109 5.24992 14.1328 5.24992C14.7547 5.24992 15.2578 4.74615 15.2578 4.12492C15.2578 3.5037 14.7547 2.99992 14.1328 2.99992C13.5109 2.99992 13.0078 3.5037 13.0078 4.12492Z" fill="white"/>
</g>
</svg>
