<svg width="91" height="90" viewBox="0 0 91 90" fill="none" xmlns="http://www.w3.org/2000/svg">
<path d="M79.1375 23.2559L48.2 6.32816C47.3734 5.87142 46.4444 5.63184 45.5 5.63184C44.5556 5.63184 43.6266 5.87142 42.8 6.32816L11.8625 23.2629C10.979 23.7463 10.2415 24.4581 9.72694 25.3239C9.21242 26.1896 8.93979 27.1777 8.9375 28.1848V61.8082C8.93979 62.8154 9.21242 63.8034 9.72694 64.6692C10.2415 65.5349 10.979 66.2467 11.8625 66.7301L42.8 83.6649C43.6266 84.1216 44.5556 84.3612 45.5 84.3612C46.4444 84.3612 47.3734 84.1216 48.2 83.6649L79.1375 66.7301C80.021 66.2467 80.7585 65.5349 81.2731 64.6692C81.7876 63.8034 82.0602 62.8154 82.0625 61.8082V28.1883C82.0621 27.1794 81.7904 26.1892 81.2757 25.3214C80.7611 24.4536 80.0226 23.7402 79.1375 23.2559ZM45.5 11.25L73.748 26.7188L63.2785 32.4457L35.0305 16.977L45.5 11.25ZM45.5 42.1875L17.252 26.7188L29.1734 20.1903L57.4215 35.659L45.5 42.1875ZM76.4375 61.8223L48.3125 77.2172V47.0496L59.5625 40.8938V53.4375C59.5625 54.1835 59.8588 54.8988 60.3863 55.4263C60.9137 55.9537 61.6291 56.25 62.375 56.25C63.1209 56.25 63.8363 55.9537 64.3637 55.4263C64.8912 54.8988 65.1875 54.1835 65.1875 53.4375V37.8141L76.4375 31.6582V61.8082V61.8223Z" fill="black"/>
</svg>
