<svg width="30" height="31" viewBox="0 0 30 31" fill="none" xmlns="http://www.w3.org/2000/svg">
<path fill-rule="evenodd" clip-rule="evenodd" d="M5.92871 12.47C5.92871 7.43646 9.98712 3.35143 15.0001 3.35143C20.0132 3.35143 24.0716 7.43646 24.0716 12.47C24.0716 14.8754 22.5674 18.0074 19.7402 21.8166L19.7372 21.8206L19.0584 22.7161C18.2327 23.7824 17.3063 24.9014 16.2782 26.0789L16.2755 26.0819L15.3741 27.0976C15.2798 27.2039 15.1446 27.265 15.0025 27.2657C14.8604 27.2664 14.7247 27.2065 14.6294 27.1011C13.348 25.6848 12.1184 24.2236 10.9431 22.7176L10.9388 22.7121L10.26 21.8166C7.4329 18.0074 5.92871 14.8754 5.92871 12.47ZM15.0001 4.35143C10.5446 4.35143 6.92871 7.98354 6.92871 12.47C6.92871 14.5243 8.2469 17.4258 11.0616 21.2186C11.0621 21.2192 11.0626 21.2199 11.0631 21.2206L11.7336 22.1052C12.7787 23.4441 13.8674 24.7474 14.9979 26.015L15.5249 25.4211C15.5254 25.4206 15.5258 25.4201 15.5263 25.4196C16.5427 24.2555 17.4553 23.1529 18.2661 22.1059C18.2666 22.1052 18.2671 22.1045 18.2677 22.1039L18.9372 21.2206C18.9377 21.2199 18.9382 21.2193 18.9387 21.2186C21.7534 17.4259 23.0716 14.5243 23.0716 12.47C23.0716 7.98354 19.4557 4.35143 15.0001 4.35143Z" fill="black"/>
<path fill-rule="evenodd" clip-rule="evenodd" d="M15.0001 9.35143C13.3038 9.35143 11.9287 10.7266 11.9287 12.4229C11.9287 14.1192 13.3038 15.4943 15.0001 15.4943C16.6964 15.4943 18.0716 14.1192 18.0716 12.4229C18.0716 10.7266 16.6964 9.35143 15.0001 9.35143ZM10.9287 12.4229C10.9287 10.1743 12.7516 8.35143 15.0001 8.35143C17.2487 8.35143 19.0716 10.1743 19.0716 12.4229C19.0716 14.6714 17.2487 16.4943 15.0001 16.4943C12.7516 16.4943 10.9287 14.6714 10.9287 12.4229Z" fill="black"/>
</svg>
