<svg width="147" height="81" viewBox="0 0 147 81" fill="none" xmlns="http://www.w3.org/2000/svg">
<path d="M10.5479 46.0474C7.84785 46.0474 5.78119 45.2807 4.34785 43.7474C2.91452 42.214 2.19785 40.0474 2.19785 37.2474V18.8474C2.19785 16.0474 2.91452 13.8807 4.34785 12.3474C5.78119 10.814 7.84785 10.0474 10.5479 10.0474C13.2479 10.0474 15.3145 10.814 16.7479 12.3474C18.1812 13.8807 18.8979 16.0474 18.8979 18.8474V37.2474C18.8979 40.0474 18.1812 42.214 16.7479 43.7474C15.3145 45.2807 13.2479 46.0474 10.5479 46.0474ZM10.5479 41.0474C12.4479 41.0474 13.3979 39.8974 13.3979 37.5974V18.4974C13.3979 16.1974 12.4479 15.0474 10.5479 15.0474C8.64785 15.0474 7.69785 16.1974 7.69785 18.4974V37.5974C7.69785 39.8974 8.64785 41.0474 10.5479 41.0474ZM22.6174 10.5474H29.5174L34.8674 31.4974H34.9674V10.5474H39.8674V45.5474H34.2174L27.6174 19.9974H27.5174V45.5474H22.6174V10.5474ZM43.9553 10.5474H49.4553V40.5474H58.5053V45.5474H43.9553V10.5474ZM61.1428 10.5474H66.6428V45.5474H61.1428V10.5474ZM70.7619 10.5474H77.6619L83.0119 31.4974H83.1119V10.5474H88.0119V45.5474H82.3619L75.7619 19.9974H75.6619V45.5474H70.7619V10.5474ZM92.0998 10.5474H107.1V15.5474H97.5998V24.7974H105.15V29.7974H97.5998V40.5474H107.1V45.5474H92.0998V10.5474Z" fill="white"/>
<path d="M4.96385 76.7874C3.68385 76.7874 2.71585 76.4274 2.05985 75.7074C1.40385 74.9714 1.07585 73.9234 1.07585 72.5634V71.6034H3.57185V72.7554C3.57185 73.8434 4.02785 74.3874 4.93985 74.3874C5.38785 74.3874 5.72385 74.2594 5.94785 74.0034C6.18785 73.7314 6.30785 73.2994 6.30785 72.7074C6.30785 72.0034 6.14785 71.3874 5.82785 70.8594C5.50785 70.3154 4.91585 69.6674 4.05185 68.9154C2.96385 67.9554 2.20385 67.0914 1.77185 66.3234C1.33985 65.5394 1.12385 64.6594 1.12385 63.6834C1.12385 62.3554 1.45985 61.3314 2.13185 60.6114C2.80385 59.8754 3.77985 59.5074 5.05985 59.5074C6.32385 59.5074 7.27585 59.8754 7.91585 60.6114C8.57185 61.3314 8.89985 62.3714 8.89985 63.7314V64.4274H6.40385V63.5634C6.40385 62.9874 6.29185 62.5714 6.06785 62.3154C5.84385 62.0434 5.51585 61.9074 5.08385 61.9074C4.20385 61.9074 3.76385 62.4434 3.76385 63.5154C3.76385 64.1234 3.92385 64.6914 4.24385 65.2194C4.57985 65.7474 5.17985 66.3874 6.04385 67.1394C7.14785 68.0994 7.90785 68.9714 8.32385 69.7554C8.73985 70.5394 8.94785 71.4594 8.94785 72.5154C8.94785 73.8914 8.60385 74.9474 7.91585 75.6834C7.24385 76.4194 6.25985 76.7874 4.96385 76.7874ZM12.5255 62.1474H9.76554V59.7474H17.9255V62.1474H15.1655V76.5474H12.5255V62.1474ZM22.926 76.7874C21.63 76.7874 20.638 76.4194 19.95 75.6834C19.262 74.9474 18.918 73.9074 18.918 72.5634V63.7314C18.918 62.3874 19.262 61.3474 19.95 60.6114C20.638 59.8754 21.63 59.5074 22.926 59.5074C24.222 59.5074 25.214 59.8754 25.902 60.6114C26.59 61.3474 26.934 62.3874 26.934 63.7314V72.5634C26.934 73.9074 26.59 74.9474 25.902 75.6834C25.214 76.4194 24.222 76.7874 22.926 76.7874ZM22.926 74.3874C23.838 74.3874 24.294 73.8354 24.294 72.7314V63.5634C24.294 62.4594 23.838 61.9074 22.926 61.9074C22.014 61.9074 21.558 62.4594 21.558 63.5634V72.7314C21.558 73.8354 22.014 74.3874 22.926 74.3874ZM28.7194 59.7474H32.6314C33.9914 59.7474 34.9834 60.0674 35.6074 60.7074C36.2314 61.3314 36.5434 62.2994 36.5434 63.6114V64.6434C36.5434 66.3874 35.9674 67.4914 34.8154 67.9554V68.0034C35.4554 68.1954 35.9034 68.5874 36.1594 69.1794C36.4314 69.7714 36.5674 70.5634 36.5674 71.5554V74.5074C36.5674 74.9874 36.5834 75.3794 36.6154 75.6834C36.6474 75.9714 36.7274 76.2594 36.8554 76.5474H34.1674C34.0714 76.2754 34.0074 76.0194 33.9754 75.7794C33.9434 75.5394 33.9274 75.1074 33.9274 74.4834V71.4114C33.9274 70.6434 33.7994 70.1074 33.5434 69.8034C33.3034 69.4994 32.8794 69.3474 32.2714 69.3474H31.3594V76.5474H28.7194V59.7474ZM32.3194 66.9474C32.8474 66.9474 33.2394 66.8114 33.4954 66.5394C33.7674 66.2674 33.9034 65.8114 33.9034 65.1714V63.8754C33.9034 63.2674 33.7914 62.8274 33.5674 62.5554C33.3594 62.2834 33.0234 62.1474 32.5594 62.1474H31.3594V66.9474H32.3194ZM38.399 59.7474H45.599V62.1474H41.039V66.5874H44.663V68.9874H41.039V74.1474H45.599V76.5474H38.399V59.7474Z" fill="white"/>
</svg>
