<svg width="30" height="31" viewBox="0 0 30 31" fill="none" xmlns="http://www.w3.org/2000/svg">
<path id="Vector" d="M20.0347 27.7908C20.0349 28.5875 19.7151 29.3549 19.1394 29.9391C18.5636 30.5232 17.7744 30.8811 16.93 30.9408L16.6783 30.9487H13.3219C12.4752 30.949 11.6596 30.6481 11.0387 30.1064C10.4178 29.5646 10.0375 28.8221 9.97398 28.0277L9.96559 27.7908H20.0347ZM15.0001 0.94873C18.046 0.948683 20.9728 2.06172 23.1632 4.05306C25.3536 6.0444 26.6363 8.75834 26.7407 11.6224L26.7474 12.0014V17.9445L29.805 23.6982C29.9385 23.9493 30.0053 24.227 29.9997 24.5076C29.9941 24.7883 29.9163 25.0635 29.7729 25.3096C29.6296 25.5558 29.4249 25.7656 29.1765 25.9211C28.9282 26.0766 28.6434 26.1731 28.3467 26.2024L28.1537 26.2119H1.84655C1.5481 26.212 1.25409 26.144 0.989701 26.0137C0.725311 25.8835 0.498426 25.6948 0.328491 25.464C0.158555 25.2332 0.0506349 24.967 0.0139782 24.6884C-0.0226785 24.4097 0.0130213 24.1268 0.118018 23.864L0.195215 23.6982L3.25286 17.9445V12.0014C3.25286 9.07002 4.49052 6.25874 6.69356 4.18597C8.8966 2.1132 11.8846 0.94873 15.0001 0.94873Z" fill="#232121"/>
</svg>
