<svg width="40" height="40" viewBox="0 0 40 40" fill="none" xmlns="http://www.w3.org/2000/svg">
<g clip-path="url(#clip0_2003_647)">
<path d="M25 31.6666C25.0003 32.5075 24.6826 33.3175 24.1108 33.9342C23.539 34.5508 22.7553 34.9285 21.9167 34.9916L21.6667 34.9999H18.3333C17.4924 35.0002 16.6824 34.6826 16.0657 34.1108C15.4491 33.5389 15.0714 32.7552 15.0083 31.9166L15 31.6666H25ZM20 3.33325C23.025 3.3332 25.9317 4.50807 28.107 6.61004C30.2824 8.71201 31.5563 11.5767 31.66 14.5999L31.6667 14.9999V21.2732L34.7033 27.3466C34.8359 27.6116 34.9022 27.9048 34.8966 28.201C34.8911 28.4972 34.8138 28.7877 34.6714 29.0475C34.529 29.3074 34.3258 29.5289 34.0791 29.693C33.8324 29.8571 33.5497 29.959 33.255 29.9899L33.0633 29.9999H6.93666C6.64027 30 6.34827 29.9282 6.08569 29.7907C5.82312 29.6533 5.59779 29.4542 5.42902 29.2105C5.26025 28.9669 5.15307 28.6859 5.11667 28.3918C5.08026 28.0976 5.11572 27.799 5.21999 27.5216L5.29666 27.3466L8.33333 21.2732V14.9999C8.33333 11.9057 9.56249 8.93826 11.7504 6.75034C13.9383 4.56241 16.9058 3.33325 20 3.33325Z" fill="white"/>
<ellipse cx="32" cy="7.5" rx="7" ry="6.5" fill="#FF0000"/>
</g>
<defs>
<clipPath id="clip0_2003_647">
<rect width="40" height="40" fill="white"/>
</clipPath>
</defs>
</svg>
