<svg width="21" height="16" viewBox="0 0 21 16" fill="none" xmlns="http://www.w3.org/2000/svg">
<path id="Vector" d="M2.58922 16C2.03922 16 1.56855 15.8043 1.17722 15.413C0.785885 15.0217 0.589885 14.5507 0.589218 14V2C0.589218 1.45 0.785218 0.979333 1.17722 0.588C1.56922 0.196666 2.03988 0.000666667 2.58922 0H18.5892C19.1392 0 19.6102 0.196 20.0022 0.588C20.3942 0.98 20.5899 1.45067 20.5892 2V14C20.5892 14.55 20.3936 15.021 20.0022 15.413C19.6109 15.805 19.1399 16.0007 18.5892 16H2.58922ZM10.5892 9L18.5892 4V2L10.5892 7L2.58922 2V4L10.5892 9Z" fill="white"/>
</svg>
