<svg width="28" height="28" viewBox="0 0 28 28" fill="none" xmlns="http://www.w3.org/2000/svg">
<g id="mdi:show-outline">
<path id="Vector" d="M13.9998 10.5C14.9281 10.5 15.8183 10.8687 16.4747 11.5251C17.1311 12.1815 17.4998 13.0717 17.4998 14C17.4998 14.9283 17.1311 15.8185 16.4747 16.4749C15.8183 17.1313 14.9281 17.5 13.9998 17.5C13.0716 17.5 12.1813 17.1313 11.525 16.4749C10.8686 15.8185 10.4998 14.9283 10.4998 14C10.4998 13.0717 10.8686 12.1815 11.525 11.5251C12.1813 10.8687 13.0716 10.5 13.9998 10.5ZM13.9998 5.25C19.8332 5.25 24.8148 8.87833 26.8332 14C24.8148 19.1217 19.8332 22.75 13.9998 22.75C8.1665 22.75 3.18484 19.1217 1.1665 14C3.18484 8.87833 8.1665 5.25 13.9998 5.25ZM3.70984 14C4.6528 15.9254 6.11703 17.5475 7.93606 18.6821C9.7551 19.8167 11.856 20.4182 13.9998 20.4182C16.1437 20.4182 18.2446 19.8167 20.0636 18.6821C21.8826 17.5475 23.3469 15.9254 24.2898 14C23.3469 12.0746 21.8826 10.4525 20.0636 9.31787C18.2446 8.18328 16.1437 7.58179 13.9998 7.58179C11.856 7.58179 9.7551 8.18328 7.93606 9.31787C6.11703 10.4525 4.6528 12.0746 3.70984 14Z" fill="black"/>
</g>
</svg>
