<svg width="30" height="31" viewBox="0 0 30 31" fill="none" xmlns="http://www.w3.org/2000/svg">
<path d="M15 15.4487C16.2979 15.4487 17.5667 15.0638 18.6459 14.3428C19.7251 13.6217 20.5663 12.5967 21.063 11.3976C21.5597 10.1985 21.6896 8.87895 21.4364 7.60595C21.1832 6.33295 20.5582 5.16363 19.6404 4.24585C18.7226 3.32806 17.5533 2.70305 16.2803 2.44983C15.0073 2.19661 13.6878 2.32657 12.4886 2.82327C11.2895 3.31997 10.2646 4.16111 9.54348 5.2403C8.82238 6.3195 8.4375 7.58829 8.4375 8.88623C8.4375 10.6267 9.1289 12.2959 10.3596 13.5266C11.5903 14.7573 13.2595 15.4487 15 15.4487ZM15 17.3237C10.9324 17.3237 2.8125 19.8362 2.8125 24.8237V28.5737H27.1875V24.8237C27.1875 19.8362 19.0676 17.3237 15 17.3237Z" fill="black"/>
</svg>
