<svg width="25" height="24" viewBox="0 0 25 24" fill="none" xmlns="http://www.w3.org/2000/svg">
<path d="M20.5391 21C18.4558 21 16.3974 20.546 14.3641 19.638C12.3308 18.73 10.4808 17.4423 8.81411 15.775C7.14745 14.1083 5.86011 12.2583 4.95211 10.225C4.04411 8.19167 3.58978 6.13333 3.58911 4.05C3.58911 3.75 3.68911 3.5 3.88911 3.3C4.08911 3.1 4.33911 3 4.63911 3H8.68911C8.92244 3 9.13078 3.07933 9.31411 3.238C9.49745 3.39667 9.60578 3.584 9.63911 3.8L10.2891 7.3C10.3224 7.56667 10.3141 7.79167 10.2641 7.975C10.2141 8.15833 10.1224 8.31667 9.98911 8.45L7.56411 10.9C7.89744 11.5167 8.29311 12.1123 8.75111 12.687C9.20911 13.2617 9.71344 13.816 10.2641 14.35C10.7808 14.8667 11.3224 15.346 11.8891 15.788C12.4558 16.23 13.0558 16.634 13.6891 17L16.0391 14.65C16.1891 14.5 16.3851 14.3877 16.6271 14.313C16.8691 14.2383 17.1064 14.2173 17.3391 14.25L20.7891 14.95C21.0224 15.0167 21.2141 15.1377 21.3641 15.313C21.5141 15.4883 21.5891 15.684 21.5891 15.9V19.95C21.5891 20.25 21.4891 20.5 21.2891 20.7C21.0891 20.9 20.8391 21 20.5391 21Z" fill="white"/>
</svg>
