<svg width="20" height="16" viewBox="0 0 20 16" fill="none" xmlns="http://www.w3.org/2000/svg">
<g id="bxl-twitter">
<path id="Path" d="M17.8907 3.99704C17.9037 4.17204 17.9037 4.34604 17.9037 4.52004C17.9037 9.84504 13.8507 15.981 6.44372 15.981C4.16172 15.981 2.04172 15.32 0.257721 14.172C0.581721 14.209 0.893721 14.222 1.23072 14.222C3.11372 14.222 4.84672 13.586 6.23172 12.501C4.46072 12.464 2.97672 11.304 2.46472 9.70804C2.71372 9.74504 2.96372 9.77004 3.22572 9.77004C3.58672 9.77004 3.94972 9.72004 4.28672 9.63304C2.43972 9.25904 1.05672 7.63804 1.05672 5.68004V5.63004C1.59372 5.92904 2.21672 6.11604 2.87672 6.14104C1.79172 5.41904 1.08072 4.18404 1.08072 2.78704C1.08072 2.03904 1.27972 1.35304 1.62872 0.755043C3.61172 3.19804 6.59272 4.79504 9.93472 4.97004C9.87272 4.67004 9.83472 4.35904 9.83472 4.04704C9.83472 1.82704 11.6307 0.019043 13.8627 0.019043C15.0227 0.019043 16.0697 0.505043 16.8057 1.29104C17.7157 1.11604 18.5877 0.779043 19.3617 0.318043C19.0627 1.25304 18.4257 2.03904 17.5907 2.53804C18.4017 2.45004 19.1877 2.22604 19.9097 1.91404C19.3617 2.71204 18.6767 3.42304 17.8907 3.99704Z" fill="white"/>
</g>
</svg>
